<svg width="358" height="77" viewBox="0 0 358 77" fill="none" xmlns="http://www.w3.org/2000/svg">
<path d="M16.5149 59V17.7H29.4949L40.1149 56.994L50.7349 17.7H63.7149V59H50.7349V22.302L40.8229 59H39.4069L29.4949 22.302V59H16.5149ZM82.0026 59.59C80.036 59.59 78.2856 59.059 76.7516 57.997C75.2176 56.8957 74.0376 55.3813 73.2116 53.454C72.3856 51.4873 71.9726 49.265 71.9726 46.787V29.5H83.3006L83.3596 44.899C83.3596 46.1183 83.7726 47.141 84.5986 47.967C85.4246 48.793 86.4473 49.206 87.6666 49.206C88.4926 49.206 89.24 49.029 89.9086 48.675C90.5773 48.2817 91.0886 47.7703 91.4426 47.141C91.836 46.4723 92.0326 45.725 92.0326 44.899V29.5H103.243V59H92.0326V47.967C91.6786 51.4677 90.597 54.28 88.7876 56.404C86.9783 58.528 84.7166 59.59 82.0026 59.59ZM125.259 59.885C120.146 59.885 116.094 58.764 113.105 56.522C110.116 54.28 108.523 51.212 108.326 47.318H119.949C120.146 48.4587 120.657 49.3437 121.483 49.973C122.348 50.563 123.489 50.858 124.905 50.858C125.77 50.858 126.537 50.7597 127.206 50.563C127.875 50.327 128.386 49.9927 128.74 49.56C129.094 49.1273 129.271 48.5963 129.271 47.967C129.271 47.377 129.055 46.8853 128.622 46.492C128.229 46.0593 127.56 45.7053 126.616 45.43C125.711 45.1153 124.472 44.8597 122.899 44.663C122.663 44.6237 122.407 44.604 122.132 44.604C121.896 44.5647 121.64 44.5253 121.365 44.486C118.415 44.132 116.075 43.6797 114.344 43.129C112.653 42.539 111.414 41.7917 110.627 40.887C109.88 39.9823 109.506 38.8417 109.506 37.465C109.506 35.695 110.096 34.1413 111.276 32.804C112.456 31.4667 114.108 30.444 116.232 29.736C118.395 28.9887 120.913 28.615 123.784 28.615C128.819 28.615 132.752 29.7557 135.584 32.037C138.455 34.279 139.95 37.4453 140.068 41.536H129.035C129.035 40.3167 128.602 39.3923 127.737 38.763C126.911 38.0943 125.908 37.76 124.728 37.76C123.587 37.76 122.624 38.0353 121.837 38.586C121.09 39.0973 120.716 39.7857 120.716 40.651C120.716 41.241 120.893 41.7523 121.247 42.185C121.64 42.6177 122.289 43.011 123.194 43.365C124.138 43.6797 125.397 43.9353 126.97 44.132C127.245 44.2107 127.54 44.2697 127.855 44.309C128.17 44.309 128.484 44.3287 128.799 44.368C128.956 44.4073 129.114 44.427 129.271 44.427C129.468 44.427 129.645 44.4467 129.802 44.486C132.319 44.8007 134.325 45.2727 135.82 45.902C137.354 46.5313 138.436 47.2983 139.065 48.203C139.694 49.0683 140.009 50.1107 140.009 51.33C140.009 53.0213 139.419 54.516 138.239 55.814C137.059 57.112 135.348 58.115 133.106 58.823C130.903 59.531 128.288 59.885 125.259 59.885ZM145.621 59V29.5H156.831V59H145.621ZM150.931 26.845L144.146 15.045H158.306L151.521 26.845H150.931ZM179.02 59.59C175.912 59.59 173.12 58.941 170.642 57.643C168.164 56.3057 166.217 54.4767 164.801 52.156C163.424 49.796 162.736 47.1607 162.736 44.25C162.736 41.3393 163.424 38.7237 164.801 36.403C166.217 34.043 168.164 32.214 170.642 30.916C173.12 29.5787 175.912 28.91 179.02 28.91C181.773 28.91 184.271 29.5 186.513 30.68C188.794 31.8207 190.623 33.394 192 35.4C193.376 37.3667 194.143 39.53 194.301 41.89H183.209C182.894 41.1033 182.343 40.4347 181.557 39.884C180.809 39.294 179.964 38.999 179.02 38.999C178.036 38.999 177.151 39.235 176.365 39.707C175.617 40.1397 175.027 40.769 174.595 41.595C174.162 42.3817 173.946 43.2667 173.946 44.25C173.946 45.2333 174.162 46.138 174.595 46.964C175.027 47.7507 175.617 48.38 176.365 48.852C177.151 49.2847 178.036 49.501 179.02 49.501C179.964 49.501 180.809 49.2257 181.557 48.675C182.343 48.085 182.894 47.3967 183.209 46.61H194.301C194.143 48.97 193.376 51.153 192 53.159C190.623 55.1257 188.794 56.699 186.513 57.879C184.271 59.0197 181.773 59.59 179.02 59.59ZM200.775 59V17.7H223.667C227.875 17.7 231.179 18.644 233.579 20.532C236.017 22.42 237.237 25.016 237.237 28.32C237.237 30.68 236.588 32.686 235.29 34.338C234.031 35.99 232.241 37.2093 229.921 37.996V38.35C232.517 39.0187 234.582 40.2577 236.116 42.067C237.65 43.837 238.417 45.9413 238.417 48.38C238.417 50.4647 237.866 52.3133 236.765 53.926C235.663 55.5387 234.129 56.7973 232.163 57.702C230.196 58.5673 227.934 59 225.378 59H200.775ZM220.54 46.846C221.759 46.846 222.782 46.4723 223.608 45.725C224.434 44.9383 224.847 43.9943 224.847 42.893C224.847 41.7917 224.434 40.8673 223.608 40.12C222.782 39.3333 221.759 38.94 220.54 38.94H213.755V46.846H220.54ZM220.068 37.76C221.287 37.76 222.31 37.3863 223.136 36.639C223.962 35.8523 224.375 34.9083 224.375 33.807C224.375 32.7057 223.962 31.7813 223.136 31.034C222.31 30.2473 221.287 29.854 220.068 29.854H213.755V37.76H220.068ZM258.768 59.59C255.621 59.59 252.789 58.941 250.272 57.643C247.754 56.3057 245.788 54.4767 244.372 52.156C242.956 49.796 242.248 47.1607 242.248 44.25C242.248 41.3393 242.956 38.7237 244.372 36.403C245.788 34.043 247.754 32.214 250.272 30.916C252.789 29.5787 255.621 28.91 258.768 28.91C261.914 28.91 264.746 29.5787 267.264 30.916C269.781 32.214 271.748 34.043 273.164 36.403C274.58 38.7237 275.288 41.3393 275.288 44.25C275.288 47.1607 274.58 49.796 273.164 52.156C271.748 54.4767 269.781 56.3057 267.264 57.643C264.746 58.941 261.914 59.59 258.768 59.59ZM258.768 49.265C259.712 49.265 260.557 49.0487 261.305 48.616C262.091 48.1833 262.701 47.5933 263.134 46.846C263.566 46.0593 263.783 45.194 263.783 44.25C263.783 43.306 263.566 42.4603 263.134 41.713C262.701 40.9263 262.091 40.3167 261.305 39.884C260.557 39.4513 259.712 39.235 258.768 39.235C257.824 39.235 256.958 39.4513 256.172 39.884C255.424 40.3167 254.834 40.9263 254.402 41.713C253.969 42.4603 253.753 43.306 253.753 44.25C253.753 45.194 253.969 46.0593 254.402 46.846C254.834 47.5933 255.424 48.1833 256.172 48.616C256.958 49.0487 257.824 49.265 258.768 49.265ZM281.194 59V17.11H292.404V43.66H293.171L301.254 29.5H312.995L304.735 43.306L313.939 59H300.959L293.053 44.84H292.404V59H281.194ZM329.973 59.885C324.859 59.885 320.808 58.764 317.819 56.522C314.829 54.28 313.236 51.212 313.04 47.318H324.663C324.859 48.4587 325.371 49.3437 326.197 49.973C327.062 50.563 328.203 50.858 329.619 50.858C330.484 50.858 331.251 50.7597 331.92 50.563C332.588 50.327 333.1 49.9927 333.454 49.56C333.808 49.1273 333.985 48.5963 333.985 47.967C333.985 47.377 333.768 46.8853 333.336 46.492C332.942 46.0593 332.274 45.7053 331.33 45.43C330.425 45.1153 329.186 44.8597 327.613 44.663C327.377 44.6237 327.121 44.604 326.846 44.604C326.61 44.5647 326.354 44.5253 326.079 44.486C323.129 44.132 320.788 43.6797 319.058 43.129C317.366 42.539 316.127 41.7917 315.341 40.887C314.593 39.9823 314.22 38.8417 314.22 37.465C314.22 35.695 314.81 34.1413 315.99 32.804C317.17 31.4667 318.822 30.444 320.946 29.736C323.109 28.9887 325.626 28.615 328.498 28.615C333.532 28.615 337.466 29.7557 340.298 32.037C343.169 34.279 344.664 37.4453 344.782 41.536H333.749C333.749 40.3167 333.316 39.3923 332.451 38.763C331.625 38.0943 330.622 37.76 329.442 37.76C328.301 37.76 327.337 38.0353 326.551 38.586C325.803 39.0973 325.43 39.7857 325.43 40.651C325.43 41.241 325.607 41.7523 325.961 42.185C326.354 42.6177 327.003 43.011 327.908 43.365C328.852 43.6797 330.11 43.9353 331.684 44.132C331.959 44.2107 332.254 44.2697 332.569 44.309C332.883 44.309 333.198 44.3287 333.513 44.368C333.67 44.4073 333.827 44.427 333.985 44.427C334.181 44.427 334.358 44.4467 334.516 44.486C337.033 44.8007 339.039 45.2727 340.534 45.902C342.068 46.5313 343.149 47.2983 343.779 48.203C344.408 49.0683 344.723 50.1107 344.723 51.33C344.723 53.0213 344.133 54.516 342.953 55.814C341.773 57.112 340.062 58.115 337.82 58.823C335.617 59.531 333.001 59.885 329.973 59.885Z" fill="#5FCDDB"/>
<rect x="16" y="65" width="329" height="12" fill="#5FCDDB"/>
</svg>
